<svg width="71" height="71" viewBox="0 0 71 71" fill="none" xmlns="http://www.w3.org/2000/svg">
<g clip-path="url(#clip0_50_64)">
<path d="M43.6224 22.6689C43.3876 22.9037 42.608 23.6971 42.4002 23.9325L38.036 28.5315C38.0141 28.5562 37.9858 28.5744 37.9543 28.584C37.9227 28.5937 37.8891 28.5944 37.8571 28.5861L18.0305 26.6553C17.9044 26.6378 17.776 26.6478 17.6541 26.6848C17.5323 26.7217 17.4199 26.7847 17.3248 26.8694L15.468 28.7262L31.6265 34.8029C31.6639 34.8164 31.6973 34.8393 31.7232 34.8695C31.7491 34.8997 31.7667 34.9361 31.7743 34.9752C31.7819 35.0143 31.7792 35.0547 31.7665 35.0924C31.7538 35.1301 31.7314 35.1638 31.7017 35.1903L23.4229 43.7177C23.3381 43.8078 23.2333 43.8767 23.1169 43.9186C23.0005 43.9606 22.8759 43.9746 22.7531 43.9594L17.0907 43.407C16.6143 43.3448 16.0812 43.5879 15.7435 43.9256L14.4411 45.2279C14.3521 45.317 14.4487 45.3874 14.5571 45.4475L20.859 49.0093C21.2266 49.1699 21.5201 49.4633 21.6807 49.831L25.2259 56.119C25.3198 56.2944 25.3972 56.3621 25.5553 56.204L26.7927 54.9665C27.3548 54.4044 27.3583 54.2546 27.2837 53.6055L26.7313 47.8464C26.7171 47.7237 26.7315 47.5994 26.7734 47.4831C26.8154 47.3669 26.8837 47.262 26.9729 47.1766L35.4928 39.0297C35.5238 39 35.5616 38.9784 35.6029 38.9667C35.6442 38.955 35.6877 38.9535 35.7297 38.9624C35.7717 38.9713 35.8108 38.9903 35.8438 39.0178C35.8768 39.0453 35.9025 39.0804 35.9188 39.1202L41.9845 55.2427L43.824 53.4032C43.9085 53.3082 43.9714 53.1961 44.0084 53.0745C44.0453 52.9529 44.0555 52.8247 44.0381 52.6988L42.1322 32.8598C42.1177 32.7914 42.2082 32.6595 42.2558 32.6119L46.7857 28.3167C47.0274 28.1027 47.814 27.33 48.0494 27.0945C51.1064 24.0375 52.1995 21.2636 50.8233 19.8874C49.4471 18.5112 46.6884 19.6029 43.6224 22.6689Z" stroke="#FE7E44" stroke-width="3" stroke-linecap="round" stroke-linejoin="round"/>
</g>
<defs>
<clipPath id="clip0_50_64">
<rect width="50" height="50" fill="white" transform="translate(0 35.3553) rotate(-45)"/>
</clipPath>
</defs>
</svg>
