<svg width="50" height="50" viewBox="0 0 50 50" fill="none" xmlns="http://www.w3.org/2000/svg">
<path d="M45.1103 25.4931C44.915 25.0283 44.455 24.7285 43.9707 24.5664L25.6914 17.293C25.2408 17.1523 24.7581 17.1523 24.3076 17.293L6.04587 24.5703C5.55759 24.7226 5.08591 25.0361 4.89255 25.501C4.69919 25.9658 4.60544 26.416 4.7949 26.9736L9.33884 38.6093C9.39676 38.7524 9.49861 38.8734 9.62972 38.9548C9.76083 39.0363 9.91442 39.074 10.0683 39.0625C12.6748 38.8984 14.9814 37.5752 16.7461 35.8886C16.8848 35.7583 17.0679 35.6858 17.2583 35.6858C17.4486 35.6858 17.6318 35.7583 17.7705 35.8886C19.6572 37.6953 22.1679 39.0625 25 39.0625C27.832 39.0625 30.3281 37.6953 32.2148 35.8847C32.3537 35.7544 32.537 35.6818 32.7275 35.6818C32.918 35.6818 33.1013 35.7544 33.2402 35.8847C35.0049 37.5722 37.3115 38.8984 39.9179 39.0625C40.0714 39.0741 40.2245 39.0368 40.3554 38.9559C40.4864 38.875 40.5882 38.7547 40.6465 38.6123L45.207 26.9756C45.4004 26.5088 45.3037 25.959 45.1103 25.4931V25.4931Z" stroke="#FE7E44" stroke-width="3" stroke-miterlimit="10"/>
<path d="M40.625 46.205C40.6249 46.0851 40.5926 45.9674 40.5315 45.8644C40.4703 45.7613 40.3825 45.6765 40.2773 45.619C37.6328 44.1981 35.2217 42.0234 34.1611 40.9316C34.0035 40.7663 33.7933 40.6612 33.5665 40.6343C33.3398 40.6074 33.1108 40.6603 32.9189 40.7841C28.0039 43.9501 22.0195 43.9521 17.1035 40.789C16.9099 40.664 16.6787 40.6108 16.4499 40.6386C16.2212 40.6664 16.0095 40.7736 15.8515 40.9413C14.7998 42.0429 12.415 44.1933 9.75485 45.6044C9.64931 45.6578 9.55908 45.7372 9.49263 45.8351C9.42619 45.933 9.3857 46.0461 9.37496 46.164C9.36704 46.2643 9.38228 46.3652 9.41952 46.4588C9.45676 46.5523 9.515 46.6361 9.58974 46.7035C9.66448 46.771 9.75373 46.8204 9.8506 46.8479C9.94746 46.8754 10.0494 46.8803 10.1484 46.8622C12.1845 46.454 14.1523 45.5263 16.0273 44.5351C16.1476 44.4717 16.2813 44.4381 16.4172 44.4371C16.5532 44.4361 16.6873 44.4677 16.8086 44.5292C19.3478 45.8212 22.1565 46.4949 25.0056 46.4952C27.8547 46.4956 30.6635 45.8226 33.2031 44.5312C33.3257 44.469 33.4614 44.4371 33.5988 44.4382C33.7363 44.4392 33.8715 44.4731 33.9931 44.537C35.8584 45.5136 37.8232 46.4501 39.8525 46.8612C39.9481 46.879 40.0464 46.8754 40.1404 46.8505C40.2344 46.8257 40.3217 46.7803 40.396 46.7176C40.4703 46.6549 40.5297 46.5764 40.57 46.488C40.6103 46.3995 40.6304 46.3032 40.6289 46.206L40.625 46.205Z" fill="#FE7E44"/>
<path d="M25 17.9297V38.7158M31.25 9.375V7.03125C31.2482 6.4102 31.0007 5.81511 30.5615 5.37596C30.1224 4.93681 29.5273 4.6893 28.9062 4.6875H21.0938C20.4727 4.6893 19.8776 4.93681 19.4385 5.37596C18.9993 5.81511 18.7518 6.4102 18.75 7.03125V9.375H31.25ZM40.625 22.7539V14.0625C40.6214 12.8204 40.1264 11.6302 39.2481 10.7519C38.3698 9.87363 37.1796 9.37861 35.9375 9.375H14.0625C12.8204 9.37861 11.6302 9.87363 10.7519 10.7519C9.87363 11.6302 9.37861 12.8204 9.375 14.0625V23.0469L40.625 22.7539Z" stroke="#FE7E44" stroke-width="3" stroke-linecap="round" stroke-linejoin="round"/>
</svg>
