<svg width="50" height="50" viewBox="0 0 50 50" fill="none" xmlns="http://www.w3.org/2000/svg">
<path d="M43.75 33.3369V16.6612C43.7493 16.1154 43.6057 15.5793 43.3335 15.1062C43.0612 14.6332 42.6698 14.2397 42.1982 13.9649L27.3545 5.3262C26.6393 4.90984 25.8266 4.69049 24.999 4.69049C24.1715 4.69049 23.3587 4.90984 22.6436 5.3262L7.80176 13.9649C7.33017 14.2397 6.93877 14.6332 6.66652 15.1062C6.39427 15.5793 6.25067 16.1154 6.25 16.6612V33.3369C6.25032 33.8831 6.39377 34.4196 6.66603 34.893C6.9383 35.3664 7.32988 35.7602 7.80176 36.0352L22.6455 44.6739C23.3609 45.0896 24.1736 45.3087 25.001 45.3087C25.8284 45.3087 26.6411 45.0896 27.3564 44.6739L42.2002 36.0352C42.6717 35.76 43.0629 35.3661 43.3348 34.8927C43.6067 34.4193 43.7499 33.8829 43.75 33.3369Z" stroke="#FE7E44" stroke-width="3" stroke-linecap="round" stroke-linejoin="round"/>
<path d="M25 45.3116V25.7803M6.73828 15.0381L25 25.7803L43.2617 15.0381H6.73828Z" stroke="#FE7E44" stroke-width="3" stroke-linecap="round" stroke-linejoin="round"/>
</svg>
